<?xml version="1.0" encoding="UTF-8" standalone="no"?>
<!-- Uploaded to: SVG Repo, www.svgrepo.com, Generator: SVG Repo Mixer Tools -->

<svg
   width="800px"
   height="800px"
   viewBox="0 0 16 16"
   fill="#000000"
   class="bi bi-wrench"
   version="1.1"
   id="svg1"
   sodipodi:docname="wrench.svg"
   inkscape:version="1.4.2 (unknown)"
   xmlns:inkscape="http://www.inkscape.org/namespaces/inkscape"
   xmlns:sodipodi="http://sodipodi.sourceforge.net/DTD/sodipodi-0.dtd"
   xmlns="http://www.w3.org/2000/svg"
   xmlns:svg="http://www.w3.org/2000/svg">
  <defs
     id="defs1" />
  <sodipodi:namedview
     id="namedview1"
     pagecolor="#ffffff"
     bordercolor="#000000"
     borderopacity="0.25"
     inkscape:showpageshadow="2"
     inkscape:pageopacity="0.0"
     inkscape:pagecheckerboard="0"
     inkscape:deskcolor="#d1d1d1"
     showgrid="false"
     inkscape:zoom="0.74875"
     inkscape:cx="400"
     inkscape:cy="400"
     inkscape:window-width="1080"
     inkscape:window-height="1890"
     inkscape:window-x="0"
     inkscape:window-y="0"
     inkscape:window-maximized="1"
     inkscape:current-layer="svg1" />
  <path
     d="M.102 2.223A3.004 3.004 0 0 0 3.78 5.897l6.341 6.252A3.003 3.003 0 0 0 13 16a3 3 0 1 0-.851-5.878L5.897 3.781A3.004 3.004 0 0 0 2.223.1l2.141 2.142L4 4l-1.757.364L.102 2.223zm13.37 9.019.528.026.287.445.445.287.026.529L15 13l-.242.471-.026.529-.445.287-.287.445-.529.026L13 15l-.471-.242-.529-.026-.287-.445-.445-.287-.026-.529L11 13l.242-.471.026-.529.445-.287.287-.445.529-.026L13 11l.471.242z"
     id="path1"
     style="stroke:none;stroke-opacity:1;fill:#595959;fill-opacity:1" />
</svg>
